<svg width="64" height="60" viewBox="0 0 64 60" fill="none" xmlns="http://www.w3.org/2000/svg">
<path d="M33.5031 60C41.7401 60 48.8004 57.0632 54.6692 51.1971C59.3465 46.5368 62.329 40.4932 63.1948 34.0205C63.7795 30.5659 63.18 25.6171 63.18 25.6171C62.3216 19.2109 59.4871 13.6111 54.6766 8.80286C48.8004 2.93675 41.7401 0 33.5031 0H8.16301C3.65596 0 0 3.66169 0 8.16669V53.2832C0 56.9967 3.0047 60 6.71246 60H33.5031ZM34.9981 33.0958C34.5392 32.6372 33.9027 32.3487 33.1997 32.3487H13.8098C12.5368 32.3487 11.5081 31.3204 11.5081 30.0481C11.5081 29.4119 11.7672 28.8349 12.1816 28.4207C12.596 28.0064 13.1733 27.7475 13.8098 27.7475H33.2589C34.628 27.7475 35.7381 26.6379 35.7381 25.2694C35.7381 24.5888 35.4569 23.9674 35.0129 23.5162C34.5688 23.065 33.9472 22.7913 33.2589 22.7913H13.832C12.5442 22.7913 11.5081 21.7482 11.5081 20.4685C11.5081 19.8545 11.745 19.2923 12.1446 18.8707C12.5368 18.4564 13.0845 18.1827 13.6988 18.1457L26.391 17.406L35.7455 16.792H36.7742C43.9603 16.792 49.7847 22.6137 49.7847 29.7966C49.7847 36.9794 43.9603 42.8011 36.7742 42.8011H35.7455L13.4027 41.44C12.337 41.3734 11.5081 40.4932 11.5081 39.4279C11.5081 38.8731 11.7376 38.3701 12.1002 38.0076C12.4628 37.6452 12.9661 37.4159 13.5211 37.4159H33.1997C34.6058 37.4159 35.7381 36.2767 35.7381 34.8786C35.7455 34.1906 35.4569 33.5544 34.9981 33.0958Z" fill="#E3026F"/>
</svg>
